<svg width="47" height="47" viewBox="0 0 47 47" fill="none" xmlns="http://www.w3.org/2000/svg">
<g clip-path="url(#clip0)">
<path d="M46.1062 23.5657C46.1062 10.9923 35.9159 0.802002 23.3426 0.802002C10.7692 0.802002 0.578857 10.9923 0.578857 23.5657C0.578857 36.1391 10.7692 46.3294 23.3426 46.3294C23.4759 46.3294 23.6093 46.3294 23.7427 46.3205V28.6075H18.8521V22.9077H23.7427V18.7106C23.7427 13.8467 26.7126 11.1968 31.052 11.1968C33.1327 11.1968 34.92 11.348 35.4358 11.4191V16.5054H32.448C30.0916 16.5054 29.6292 17.6258 29.6292 19.2708V22.8988H35.2757L34.5377 28.5986H29.6292V45.4491C39.1438 42.7192 46.1062 33.9605 46.1062 23.5657Z" fill="black"/>
</g>
<defs>
<clipPath id="clip0">
<rect width="45.5274" height="45.5274" fill="white" transform="translate(0.578857 0.802002)"/>
</clipPath>
</defs>
</svg>
