<svg width="47" height="47" viewBox="0 0 47 47" fill="none" xmlns="http://www.w3.org/2000/svg">
<g clip-path="url(#clip0)">
<path d="M27.9889 23.5657C27.9889 25.9721 26.0382 27.9228 23.6318 27.9228C21.2254 27.9228 19.2747 25.9721 19.2747 23.5657C19.2747 21.1593 21.2254 19.2086 23.6318 19.2086C26.0382 19.2086 27.9889 21.1593 27.9889 23.5657Z" fill="black"/>
<path d="M33.8215 15.8566C33.612 15.289 33.2779 14.7753 32.8437 14.3536C32.422 13.9194 31.9087 13.5853 31.3407 13.3758C30.8802 13.197 30.1882 12.984 28.9138 12.926C27.5352 12.8632 27.1219 12.8496 23.6317 12.8496C20.1413 12.8496 19.7279 12.8628 18.3496 12.9257C17.0752 12.984 16.383 13.197 15.9227 13.3758C15.3548 13.5853 14.8411 13.9194 14.4198 14.3536C13.9856 14.7753 13.6514 15.2887 13.4416 15.8566C13.2628 16.3172 13.0498 17.0094 12.9918 18.2838C12.929 19.6621 12.9154 20.0755 12.9154 23.5659C12.9154 27.0561 12.929 27.4694 12.9918 28.848C13.0498 30.1224 13.2628 30.8144 13.4416 31.2749C13.6514 31.8429 13.9852 32.3562 14.4194 32.7779C14.8411 33.2121 15.3545 33.5462 15.9224 33.7557C16.383 33.9349 17.0752 34.1478 18.3496 34.2059C19.7279 34.2687 20.1409 34.2819 23.6314 34.2819C27.1222 34.2819 27.5356 34.2687 28.9135 34.2059C30.1879 34.1478 30.8802 33.9349 31.3407 33.7557C32.4807 33.316 33.3817 32.4149 33.8215 31.2749C34.0004 30.8144 34.2133 30.1224 34.2716 28.848C34.3345 27.4694 34.3477 27.0561 34.3477 23.5659C34.3477 20.0755 34.3345 19.6621 34.2716 18.2838C34.2136 17.0094 34.0007 16.3172 33.8215 15.8566ZM23.6317 30.2777C19.9245 30.2777 16.9193 27.2728 16.9193 23.5656C16.9193 19.8584 19.9245 16.8535 23.6317 16.8535C27.3386 16.8535 30.3439 19.8584 30.3439 23.5656C30.3439 27.2728 27.3386 30.2777 23.6317 30.2777ZM30.6092 18.1567C29.7429 18.1567 29.0406 17.4544 29.0406 16.5881C29.0406 15.7218 29.7429 15.0195 30.6092 15.0195C31.4755 15.0195 32.1778 15.7218 32.1778 16.5881C32.1775 17.4544 31.4755 18.1567 30.6092 18.1567Z" fill="black"/>
<path d="M23.6317 0.802002C11.0616 0.802002 0.868042 10.9956 0.868042 23.5657C0.868042 36.1358 11.0616 46.3294 23.6317 46.3294C36.2019 46.3294 46.3954 36.1358 46.3954 23.5657C46.3954 10.9956 36.2019 0.802002 23.6317 0.802002ZM36.6242 28.9548C36.561 30.3462 36.3397 31.2962 36.0167 32.1278C35.3377 33.8836 33.9497 35.2716 32.1938 35.9507C31.3626 36.2737 30.4123 36.4946 29.0212 36.5582C27.6273 36.6217 27.182 36.637 23.6321 36.637C20.0819 36.637 19.6369 36.6217 18.2427 36.5582C16.8515 36.4946 15.9012 36.2737 15.07 35.9507C14.1975 35.6224 13.4076 35.108 12.7546 34.4428C12.0898 33.7902 11.5753 33 11.2471 32.1278C10.9241 31.2966 10.7028 30.3462 10.6396 28.9551C10.5753 27.5609 10.5604 27.1156 10.5604 23.5657C10.5604 20.0158 10.5753 19.5705 10.6392 18.1766C10.7025 16.7851 10.9234 15.8352 11.2464 15.0036C11.5746 14.1314 12.0894 13.3412 12.7546 12.6885C13.4072 12.0234 14.1975 11.509 15.0696 11.1807C15.9012 10.8577 16.8512 10.6368 18.2427 10.5732C19.6366 10.5096 20.0819 10.4944 23.6317 10.4944C27.1816 10.4944 27.6269 10.5096 29.0208 10.5736C30.4123 10.6368 31.3623 10.8577 32.1938 11.1804C33.066 11.5086 33.8562 12.0234 34.5092 12.6885C35.1741 13.3416 35.6888 14.1314 36.0167 15.0036C36.3401 15.8352 36.561 16.7851 36.6246 18.1766C36.6881 19.5705 36.7031 20.0158 36.7031 23.5657C36.7031 27.1156 36.6881 27.5609 36.6242 28.9548Z" fill="black"/>
</g>
<defs>
<clipPath id="clip0">
<rect width="45.5274" height="45.5274" fill="white" transform="translate(0.868042 0.802002)"/>
</clipPath>
</defs>
</svg>
