<svg width="46" height="47" viewBox="0 0 46 47" fill="none" xmlns="http://www.w3.org/2000/svg">
<g clip-path="url(#clip0)">
<path d="M22.9871 0.802002C10.417 0.802002 0.223389 10.9956 0.223389 23.5657C0.223389 36.1358 10.417 46.3294 22.9871 46.3294C35.5572 46.3294 45.7508 36.1358 45.7508 23.5657C45.7508 10.9956 35.5572 0.802002 22.9871 0.802002ZM33.3807 18.5507C33.3908 18.7747 33.3957 18.9998 33.3957 19.2259C33.3957 26.1302 28.1403 34.0917 18.5296 34.092H18.5299H18.5296C15.5789 34.092 12.8331 33.2271 10.5208 31.745C10.9296 31.7933 11.3458 31.8173 11.7671 31.8173C14.2152 31.8173 16.4681 30.9822 18.2566 29.5807C15.9693 29.5383 14.0408 28.0277 13.3753 25.9516C13.6938 26.0128 14.0214 26.0461 14.3573 26.0461C14.8342 26.0461 15.2961 25.9818 15.7352 25.862C13.3444 25.3834 11.5434 23.2705 11.5434 20.7404C11.5434 20.7168 11.5434 20.6956 11.5441 20.6737C12.2482 21.0651 13.0533 21.3006 13.9106 21.327C12.5076 20.3909 11.5854 18.7907 11.5854 16.9779C11.5854 16.0206 11.8442 15.1238 12.293 14.3516C14.8696 17.5132 18.7203 19.5924 23.0628 19.8109C22.9732 19.4281 22.927 19.0294 22.927 18.6195C22.927 15.7351 25.2671 13.395 28.1525 13.395C29.6554 13.395 31.0129 14.0303 31.9663 15.046C33.1567 14.8112 34.2744 14.3763 35.2842 13.7778C34.8934 14.9974 34.0653 16.0206 32.9865 16.6677C34.0435 16.5413 35.0508 16.261 35.9869 15.8449C35.2877 16.8928 34.4009 17.8133 33.3807 18.5507Z" fill="black"/>
</g>
<defs>
<clipPath id="clip0">
<rect width="45.5274" height="45.5274" fill="white" transform="translate(0.223389 0.802002)"/>
</clipPath>
</defs>
</svg>
