<svg width="47" height="47" viewBox="0 0 47 47" fill="none" xmlns="http://www.w3.org/2000/svg">
<g clip-path="url(#clip0)">
<path d="M20.4409 27.8306L27.8456 23.5659L20.4409 19.3011V27.8306Z" fill="black"/>
<path d="M23.2764 0.802002C10.7063 0.802002 0.512695 10.9956 0.512695 23.5657C0.512695 36.1358 10.7063 46.3294 23.2764 46.3294C35.8465 46.3294 46.0401 36.1358 46.0401 23.5657C46.0401 10.9956 35.8465 0.802002 23.2764 0.802002ZM37.5002 23.589C37.5002 23.589 37.5002 28.2055 36.9146 30.4317C36.5864 31.6502 35.6256 32.6109 34.4071 32.9388C32.181 33.5248 23.2764 33.5248 23.2764 33.5248C23.2764 33.5248 14.3951 33.5248 12.1457 32.9156C10.9272 32.5877 9.96642 31.6266 9.63818 30.4081C9.05221 28.2055 9.05221 23.5657 9.05221 23.5657C9.05221 23.5657 9.05221 18.9495 9.63818 16.7233C9.96607 15.5048 10.9505 14.5204 12.1457 14.1926C14.3718 13.6066 23.2764 13.6066 23.2764 13.6066C23.2764 13.6066 32.181 13.6066 34.4071 14.2158C35.6256 14.5437 36.5864 15.5048 36.9146 16.7233C37.5238 18.9495 37.5002 23.589 37.5002 23.589Z" fill="black"/>
</g>
<defs>
<clipPath id="clip0">
<rect width="45.5274" height="45.5274" fill="white" transform="translate(0.512695 0.802002)"/>
</clipPath>
</defs>
</svg>
